<svg width="512" height="512" viewBox="0 0 512 512" fill="none" xmlns="http://www.w3.org/2000/svg">
  <rect width="512" height="512" rx="120" fill="#EFE3CE"/>
  <circle cx="386" cy="122" r="78" fill="#D5A253" fill-opacity="0.28"/>
  <circle cx="114" cy="416" r="96" fill="#2F6E52" fill-opacity="0.2"/>
  <rect x="72" y="84" width="368" height="344" rx="52" fill="#FFFAF1" stroke="#25170F" stroke-opacity="0.12" stroke-width="4"/>
  <path d="M154 165C154 147.327 168.327 133 186 133H290C307.673 133 322 147.327 322 165V211C322 228.673 307.673 243 290 243H244L198.5 286C191.572 292.55 180 287.64 180 278.14V243H186C168.327 243 154 228.673 154 211V165Z" fill="#2F6E52"/>
  <path d="M206 182.5H270" stroke="#FFFAF1" stroke-width="18" stroke-linecap="round"/>
  <path d="M206 214.5H256" stroke="#FFFAF1" stroke-width="18" stroke-linecap="round"/>
  <path d="M205 319H307" stroke="#B96342" stroke-width="22" stroke-linecap="round"/>
  <path d="M205 359H270" stroke="#B96342" stroke-width="22" stroke-linecap="round"/>
  <path d="M335.5 315L369 349L429 289" stroke="#D5A253" stroke-width="24" stroke-linecap="round" stroke-linejoin="round"/>
</svg>
